<mxfile host="Electron" agent="Mozilla/5.0 (Windows NT 10.0; Win64; x64) AppleWebKit/537.36 (KHTML, like Gecko) draw.io/24.7.17 Chrome/128.0.6613.36 Electron/32.0.1 Safari/537.36" version="24.7.17">
  <diagram name="Page-1" id="1SadgF-9rZ70qmaTShCq">
    <mxGraphModel dx="1687" dy="993" grid="0" gridSize="10" guides="1" tooltips="1" connect="1" arrows="1" fold="1" page="1" pageScale="1" pageWidth="1920" pageHeight="1200" math="0" shadow="0">
      <root>
        <mxCell id="0" />
        <mxCell id="1" parent="0" />
        <mxCell id="Wuy5xpC5ugecZw4w145a-23" value="" style="ellipse;whiteSpace=wrap;html=1;fillColor=none;strokeColor=#82b366;" vertex="1" parent="1">
          <mxGeometry x="1069" y="288" width="269" height="221" as="geometry" />
        </mxCell>
        <mxCell id="Wuy5xpC5ugecZw4w145a-1" value="" style="rounded=0;whiteSpace=wrap;html=1;dashed=1;fillColor=none;" vertex="1" parent="1">
          <mxGeometry x="354" y="100" width="1043" height="664" as="geometry" />
        </mxCell>
        <mxCell id="Wuy5xpC5ugecZw4w145a-5" value="" style="rounded=0;whiteSpace=wrap;html=1;dashed=1;fillColor=none;" vertex="1" parent="1">
          <mxGeometry x="671" y="226" width="709" height="481" as="geometry" />
        </mxCell>
        <mxCell id="Wuy5xpC5ugecZw4w145a-9" value="" style="rounded=0;whiteSpace=wrap;html=1;dashed=1;fillColor=none;" vertex="1" parent="1">
          <mxGeometry x="1057" y="252" width="301" height="365" as="geometry" />
        </mxCell>
        <mxCell id="Wuy5xpC5ugecZw4w145a-2" value="Resource Group" style="text;html=1;align=center;verticalAlign=middle;whiteSpace=wrap;rounded=0;fontSize=16;" vertex="1" parent="1">
          <mxGeometry x="436" y="786" width="133" height="30" as="geometry" />
        </mxCell>
        <mxCell id="Wuy5xpC5ugecZw4w145a-3" value="" style="image;aspect=fixed;html=1;points=[];align=center;fontSize=12;image=img/lib/azure2/general/Resource_Groups.svg;" vertex="1" parent="1">
          <mxGeometry x="345" y="772" width="68" height="64" as="geometry" />
        </mxCell>
        <mxCell id="Wuy5xpC5ugecZw4w145a-6" value="" style="image;aspect=fixed;html=1;points=[];align=center;fontSize=12;image=img/lib/azure2/networking/Virtual_Networks.svg;" vertex="1" parent="1">
          <mxGeometry x="662" y="714" width="67" height="40" as="geometry" />
        </mxCell>
        <mxCell id="Wuy5xpC5ugecZw4w145a-7" value="Virtual Network" style="text;html=1;align=center;verticalAlign=middle;whiteSpace=wrap;rounded=0;fontSize=16;" vertex="1" parent="1">
          <mxGeometry x="777" y="721" width="133" height="30" as="geometry" />
        </mxCell>
        <mxCell id="Wuy5xpC5ugecZw4w145a-8" value="" style="image;aspect=fixed;html=1;points=[];align=center;fontSize=12;image=img/lib/azure2/compute/Virtual_Machine.svg;" vertex="1" parent="1">
          <mxGeometry x="1102" y="345" width="69" height="64" as="geometry" />
        </mxCell>
        <mxCell id="Wuy5xpC5ugecZw4w145a-10" value="" style="image;aspect=fixed;html=1;points=[];align=center;fontSize=12;image=img/lib/azure2/networking/Subnet.svg;" vertex="1" parent="1">
          <mxGeometry x="1094" y="639" width="68" height="40.72" as="geometry" />
        </mxCell>
        <mxCell id="Wuy5xpC5ugecZw4w145a-11" value="Subnet" style="text;html=1;align=center;verticalAlign=middle;whiteSpace=wrap;rounded=0;fontSize=16;" vertex="1" parent="1">
          <mxGeometry x="1162" y="644.36" width="133" height="30" as="geometry" />
        </mxCell>
        <mxCell id="Wuy5xpC5ugecZw4w145a-12" value="" style="image;aspect=fixed;html=1;points=[];align=center;fontSize=12;image=img/lib/azure2/compute/Virtual_Machine.svg;" vertex="1" parent="1">
          <mxGeometry x="1229" y="345" width="69" height="64" as="geometry" />
        </mxCell>
        <mxCell id="Wuy5xpC5ugecZw4w145a-13" value="linuxvm01" style="text;html=1;align=center;verticalAlign=middle;whiteSpace=wrap;rounded=0;fontSize=16;" vertex="1" parent="1">
          <mxGeometry x="1078" y="428" width="133" height="30" as="geometry" />
        </mxCell>
        <mxCell id="Wuy5xpC5ugecZw4w145a-14" value="linuxvm02" style="text;html=1;align=center;verticalAlign=middle;whiteSpace=wrap;rounded=0;fontSize=16;" vertex="1" parent="1">
          <mxGeometry x="1207" y="428" width="133" height="30" as="geometry" />
        </mxCell>
        <mxCell id="Wuy5xpC5ugecZw4w145a-22" style="edgeStyle=orthogonalEdgeStyle;rounded=0;orthogonalLoop=1;jettySize=auto;html=1;" edge="1" parent="1" source="Wuy5xpC5ugecZw4w145a-15" target="Wuy5xpC5ugecZw4w145a-9">
          <mxGeometry relative="1" as="geometry" />
        </mxCell>
        <mxCell id="Wuy5xpC5ugecZw4w145a-15" value="" style="image;aspect=fixed;html=1;points=[];align=center;fontSize=12;image=img/lib/azure2/networking/Load_Balancers.svg;" vertex="1" parent="1">
          <mxGeometry x="517" y="389" width="89" height="89" as="geometry" />
        </mxCell>
        <mxCell id="Wuy5xpC5ugecZw4w145a-31" style="edgeStyle=orthogonalEdgeStyle;rounded=0;orthogonalLoop=1;jettySize=auto;html=1;" edge="1" parent="1" source="Wuy5xpC5ugecZw4w145a-16" target="Wuy5xpC5ugecZw4w145a-8">
          <mxGeometry relative="1" as="geometry" />
        </mxCell>
        <mxCell id="Wuy5xpC5ugecZw4w145a-16" value="" style="image;aspect=fixed;html=1;points=[];align=center;fontSize=12;image=img/lib/azure2/networking/Public_IP_Addresses.svg;" vertex="1" parent="1">
          <mxGeometry x="1104" y="138" width="65" height="52" as="geometry" />
        </mxCell>
        <mxCell id="Wuy5xpC5ugecZw4w145a-32" style="edgeStyle=orthogonalEdgeStyle;rounded=0;orthogonalLoop=1;jettySize=auto;html=1;" edge="1" parent="1" source="Wuy5xpC5ugecZw4w145a-17" target="Wuy5xpC5ugecZw4w145a-12">
          <mxGeometry relative="1" as="geometry" />
        </mxCell>
        <mxCell id="Wuy5xpC5ugecZw4w145a-17" value="" style="image;aspect=fixed;html=1;points=[];align=center;fontSize=12;image=img/lib/azure2/networking/Public_IP_Addresses.svg;" vertex="1" parent="1">
          <mxGeometry x="1230" y="138" width="65" height="52" as="geometry" />
        </mxCell>
        <mxCell id="Wuy5xpC5ugecZw4w145a-20" style="edgeStyle=orthogonalEdgeStyle;rounded=0;orthogonalLoop=1;jettySize=auto;html=1;" edge="1" parent="1" source="Wuy5xpC5ugecZw4w145a-18" target="Wuy5xpC5ugecZw4w145a-15">
          <mxGeometry relative="1" as="geometry" />
        </mxCell>
        <mxCell id="Wuy5xpC5ugecZw4w145a-18" value="" style="image;aspect=fixed;html=1;points=[];align=center;fontSize=12;image=img/lib/azure2/networking/Public_IP_Addresses.svg;" vertex="1" parent="1">
          <mxGeometry x="395" y="407.5" width="65" height="52" as="geometry" />
        </mxCell>
        <mxCell id="Wuy5xpC5ugecZw4w145a-24" value="Backend Pool running Nginx on Port 80" style="text;html=1;align=center;verticalAlign=middle;whiteSpace=wrap;rounded=0;fontSize=16;" vertex="1" parent="1">
          <mxGeometry x="1146" y="524" width="133" height="30" as="geometry" />
        </mxCell>
        <mxCell id="Wuy5xpC5ugecZw4w145a-26" value="Azure LB" style="text;html=1;align=center;verticalAlign=middle;whiteSpace=wrap;rounded=0;fontSize=16;" vertex="1" parent="1">
          <mxGeometry x="503" y="500" width="133" height="30" as="geometry" />
        </mxCell>
        <mxCell id="Wuy5xpC5ugecZw4w145a-27" value="Frontend Public IP" style="text;html=1;align=center;verticalAlign=middle;whiteSpace=wrap;rounded=0;fontSize=16;" vertex="1" parent="1">
          <mxGeometry x="361" y="500" width="133" height="47" as="geometry" />
        </mxCell>
        <mxCell id="Wuy5xpC5ugecZw4w145a-28" value="Public IPs" style="text;html=1;align=center;verticalAlign=middle;whiteSpace=wrap;rounded=0;fontSize=16;" vertex="1" parent="1">
          <mxGeometry x="1137" y="179" width="133" height="47" as="geometry" />
        </mxCell>
        <mxCell id="Wuy5xpC5ugecZw4w145a-33" value="" style="shape=flexArrow;endArrow=classic;html=1;rounded=0;" edge="1" parent="1">
          <mxGeometry width="50" height="50" relative="1" as="geometry">
            <mxPoint x="277" y="433.79" as="sourcePoint" />
            <mxPoint x="372" y="433.79" as="targetPoint" />
          </mxGeometry>
        </mxCell>
      </root>
    </mxGraphModel>
  </diagram>
</mxfile>
